<svg xmlns="http://www.w3.org/2000/svg" xmlns:xlink="http://www.w3.org/1999/xlink" width="129.901" height="67.927" viewBox="0 0 129.901 67.927">
  <defs>
    <clipPath id="clip-path">
      <path id="Trazado_9" data-name="Trazado 9" d="M0,0H129.9V67.927H0Z" transform="translate(0 76)" fill="#404756"/>
    </clipPath>
  </defs>
  <g id="Enmascarar_grupo_1" data-name="Enmascarar grupo 1" transform="translate(0 -76)" clip-path="url(#clip-path)">
    <g id="logo-merlin" transform="translate(0 89.492)">
      <g id="Grupo_1" data-name="Grupo 1" transform="translate(0 3.077)">
        <path id="Trazado_2" data-name="Trazado 2" d="M35.039,72.1V108H28.952v-23.8l-8.586,17.381H14.712L6.087,84.206V108H0V72.1H6.85l10.7,21.562L28.2,72.1h6.837Z" transform="translate(0 -70.296)" fill="#2a3374"/>
        <path id="Trazado_3" data-name="Trazado 3" d="M564.261,203.362c.381,4.023,3.1,7.166,6.469,7.166s4.234-1.473,5.43-3.642l5.6,2.288a12.333,12.333,0,0,1-11.031,7.337c-4.786,0-12.109-5.811-12.556-13.148a5.806,5.806,0,0,1-.053-.92,14.912,14.912,0,0,1,.329-3.208c1.3-6.245,6.3-10.926,12.28-10.926s10.978,4.667,12.228,10.926a14.912,14.912,0,0,1,.329,3.208v.92H564.261Zm12.438-4.128c-.92-3.1-3.261-5.483-5.982-5.483s-5.049,2.393-6.035,5.483H576.7Z" transform="translate(-520.361 -178.644)" fill="#2a3374"/>
        <path id="Trazado_4" data-name="Trazado 4" d="M989.528,190.28l-3.156,4.944-.224-.224a5.424,5.424,0,0,0-3.8-1.578c-3.419,0-6.193,3.1-6.35,8.48v14.45h-6.087V188.479h1.841a4.22,4.22,0,0,1,4.234,4.181,10.026,10.026,0,0,1,7.928-4.352,7.2,7.2,0,0,1,5.6,1.959Z" transform="translate(-904.29 -178.644)" fill="#2a3374"/>
        <path id="Trazado_5" data-name="Trazado 5" d="M1285.805,45.474a4.239,4.239,0,0,1,4.234,4.234V83.169h-6.087V45.474h1.854Z" transform="translate(-1197.083 -45.474)" fill="#2a3374"/>
        <path id="Trazado_6" data-name="Trazado 6" d="M1421.94,218.707V190.834h1.841a4.239,4.239,0,0,1,4.234,4.234v23.64h-6.074Z" transform="translate(-1325.724 -180.999)" fill="#2a3374"/>
        <path id="Trazado_7" data-name="Trazado 7" d="M1584.628,201.679v14.673h-6.088v-13.91c0-5.654-2.288-9.019-5.811-9.019s-6.193,3.1-6.35,8.48v14.45h-6.088V188.479h1.841a4.263,4.263,0,0,1,4.234,4.181,10.027,10.027,0,0,1,7.928-4.352c5.811,0,10.321,5.864,10.321,13.371Z" transform="translate(-1454.727 -178.644)" fill="#2a3374"/>
      </g>
      <path id="Trazado_8" data-name="Trazado 8" d="M1382.615,7.337l1.683,4.628-3.879-3.037-3.892,3.037,1.683-4.628-4.089-2.761,4.93.171L1380.419,0l1.354,4.746,4.93-.171Z" transform="translate(-1281.153)" fill="#ffe609"/>
    </g>
  </g>
</svg>
