<svg xmlns="http://www.w3.org/2000/svg" width="31.172" height="23.755" viewBox="0 0 31.172 23.755">
  <path id="sign-out-alt-solid" d="M30.74,76.907,20.349,87.3a1.487,1.487,0,0,1-2.536-1.051V80.309H9.4a1.481,1.481,0,0,1-1.484-1.484V72.887A1.481,1.481,0,0,1,9.4,71.4h8.412V65.464a1.488,1.488,0,0,1,2.536-1.051L30.74,74.8A1.5,1.5,0,0,1,30.74,76.907ZM11.876,86.989V84.515a.744.744,0,0,0-.742-.742h-5.2a1.977,1.977,0,0,1-1.979-1.979V69.918a1.977,1.977,0,0,1,1.979-1.979h5.2a.744.744,0,0,0,.742-.742V64.722a.744.744,0,0,0-.742-.742h-5.2A5.939,5.939,0,0,0,0,69.918V81.793a5.939,5.939,0,0,0,5.938,5.938h5.2A.744.744,0,0,0,11.876,86.989Z" transform="translate(0 -63.979)" fill="#b20808"/>
</svg>
