<svg xmlns="http://www.w3.org/2000/svg" width="28.172" height="28.172" viewBox="0 0 28.172 28.172">
  <path id="times-circle-regular" d="M22.086,8A14.086,14.086,0,1,0,36.172,22.086,14.084,14.084,0,0,0,22.086,8Zm0,25.446a11.36,11.36,0,1,1,11.36-11.36A11.357,11.357,0,0,1,22.086,33.446Zm5.782-14.893-3.533,3.533,3.533,3.533a.682.682,0,0,1,0,.966l-1.284,1.284a.682.682,0,0,1-.966,0l-3.533-3.533-3.533,3.533a.682.682,0,0,1-.966,0L16.3,26.585a.682.682,0,0,1,0-.966l3.533-3.533L16.3,18.553a.682.682,0,0,1,0-.966L17.588,16.3a.682.682,0,0,1,.966,0l3.533,3.533L25.619,16.3a.682.682,0,0,1,.966,0l1.284,1.284a.682.682,0,0,1,0,.966Z" transform="translate(-8 -8)" fill="#898585"/>
</svg>
