<svg xmlns="http://www.w3.org/2000/svg" width="36.867" height="36.867" viewBox="0 0 36.867 36.867">
  <path id="user-circle-solid" d="M18.434,8A18.434,18.434,0,1,0,36.867,26.434,18.43,18.43,0,0,0,18.434,8Zm0,7.136a6.541,6.541,0,1,1-6.541,6.541A6.541,6.541,0,0,1,18.434,15.136Zm0,25.569A14.243,14.243,0,0,1,7.544,35.636a8.287,8.287,0,0,1,7.321-4.445,1.819,1.819,0,0,1,.528.082,9.841,9.841,0,0,0,3.04.513,9.8,9.8,0,0,0,3.04-.513A1.819,1.819,0,0,1,22,31.191a8.287,8.287,0,0,1,7.321,4.445A14.243,14.243,0,0,1,18.434,40.7Z" transform="translate(0 -8)" fill="#2a3374"/>
</svg>
